<svg id="visual" viewBox="0 0 960 200" width="960" height="200" xmlns="http://www.w3.org/2000/svg" xmlns:xlink="http://www.w3.org/1999/xlink" version="1.1"><rect x="0" y="0" width="960" height="200" fill="#ffffff"></rect><path d="M0 75L13.3 72.2C26.7 69.3 53.3 63.7 80 59.5C106.7 55.3 133.3 52.7 160 55.7C186.7 58.7 213.3 67.3 240 67.7C266.7 68 293.3 60 320 58.7C346.7 57.3 373.3 62.7 400 66.3C426.7 70 453.3 72 480 74.8C506.7 77.7 533.3 81.3 560 80.5C586.7 79.7 613.3 74.3 640 75.3C666.7 76.3 693.3 83.7 720 84.2C746.7 84.7 773.3 78.3 800 76.7C826.7 75 853.3 78 880 81.7C906.7 85.3 933.3 89.7 946.7 91.8L960 94L960 201L946.7 201C933.3 201 906.7 201 880 201C853.3 201 826.7 201 800 201C773.3 201 746.7 201 720 201C693.3 201 666.7 201 640 201C613.3 201 586.7 201 560 201C533.3 201 506.7 201 480 201C453.3 201 426.7 201 400 201C373.3 201 346.7 201 320 201C293.3 201 266.7 201 240 201C213.3 201 186.7 201 160 201C133.3 201 106.7 201 80 201C53.3 201 26.7 201 13.3 201L0 201Z" fill="#f1190a"></path><path d="M0 104L13.3 105.8C26.7 107.7 53.3 111.3 80 114C106.7 116.7 133.3 118.3 160 110.5C186.7 102.7 213.3 85.3 240 78.7C266.7 72 293.3 76 320 77.2C346.7 78.3 373.3 76.7 400 82.7C426.7 88.7 453.3 102.3 480 107.8C506.7 113.3 533.3 110.7 560 104.2C586.7 97.7 613.3 87.3 640 85C666.7 82.7 693.3 88.3 720 88.8C746.7 89.3 773.3 84.7 800 84.3C826.7 84 853.3 88 880 88.7C906.7 89.3 933.3 86.7 946.7 85.3L960 84L960 201L946.7 201C933.3 201 906.7 201 880 201C853.3 201 826.7 201 800 201C773.3 201 746.7 201 720 201C693.3 201 666.7 201 640 201C613.3 201 586.7 201 560 201C533.3 201 506.7 201 480 201C453.3 201 426.7 201 400 201C373.3 201 346.7 201 320 201C293.3 201 266.7 201 240 201C213.3 201 186.7 201 160 201C133.3 201 106.7 201 80 201C53.3 201 26.7 201 13.3 201L0 201Z" fill="#ac001f"></path><path d="M0 137L13.3 132.8C26.7 128.7 53.3 120.3 80 117C106.7 113.7 133.3 115.3 160 121C186.7 126.7 213.3 136.3 240 136.8C266.7 137.3 293.3 128.7 320 129C346.7 129.3 373.3 138.7 400 139.7C426.7 140.7 453.3 133.3 480 126.5C506.7 119.7 533.3 113.3 560 117C586.7 120.7 613.3 134.3 640 137.2C666.7 140 693.3 132 720 125.5C746.7 119 773.3 114 800 116.2C826.7 118.3 853.3 127.7 880 128.7C906.7 129.7 933.3 122.3 946.7 118.7L960 115L960 201L946.7 201C933.3 201 906.7 201 880 201C853.3 201 826.7 201 800 201C773.3 201 746.7 201 720 201C693.3 201 666.7 201 640 201C613.3 201 586.7 201 560 201C533.3 201 506.7 201 480 201C453.3 201 426.7 201 400 201C373.3 201 346.7 201 320 201C293.3 201 266.7 201 240 201C213.3 201 186.7 201 160 201C133.3 201 106.7 201 80 201C53.3 201 26.7 201 13.3 201L0 201Z" fill="#66041c"></path><path d="M0 149L13.3 147.5C26.7 146 53.3 143 80 144C106.7 145 133.3 150 160 151.7C186.7 153.3 213.3 151.7 240 155.3C266.7 159 293.3 168 320 168.3C346.7 168.7 373.3 160.3 400 160.2C426.7 160 453.3 168 480 169C506.7 170 533.3 164 560 159.8C586.7 155.7 613.3 153.3 640 153.3C666.7 153.3 693.3 155.7 720 156.3C746.7 157 773.3 156 800 154C826.7 152 853.3 149 880 150.3C906.7 151.7 933.3 157.3 946.7 160.2L960 163L960 201L946.7 201C933.3 201 906.7 201 880 201C853.3 201 826.7 201 800 201C773.3 201 746.7 201 720 201C693.3 201 666.7 201 640 201C613.3 201 586.7 201 560 201C533.3 201 506.7 201 480 201C453.3 201 426.7 201 400 201C373.3 201 346.7 201 320 201C293.3 201 266.7 201 240 201C213.3 201 186.7 201 160 201C133.3 201 106.7 201 80 201C53.3 201 26.7 201 13.3 201L0 201Z" fill="#270208"></path></svg>