<svg id="visual" viewBox="0 0 960 200" width="960" height="200" xmlns="http://www.w3.org/2000/svg" xmlns:xlink="http://www.w3.org/1999/xlink" version="1.1"><rect x="0" y="0" width="960" height="200" fill="#ffffff"></rect><path d="M0 123L13.3 125.8C26.7 128.7 53.3 134.3 80 138.5C106.7 142.7 133.3 145.3 160 142.3C186.7 139.3 213.3 130.7 240 130.3C266.7 130 293.3 138 320 139.3C346.7 140.7 373.3 135.3 400 131.7C426.7 128 453.3 126 480 123.2C506.7 120.3 533.3 116.7 560 117.5C586.7 118.3 613.3 123.7 640 122.7C666.7 121.7 693.3 114.3 720 113.8C746.7 113.3 773.3 119.7 800 121.3C826.7 123 853.3 120 880 116.3C906.7 112.7 933.3 108.3 946.7 106.2L960 104L960 0L946.7 0C933.3 0 906.7 0 880 0C853.3 0 826.7 0 800 0C773.3 0 746.7 0 720 0C693.3 0 666.7 0 640 0C613.3 0 586.7 0 560 0C533.3 0 506.7 0 480 0C453.3 0 426.7 0 400 0C373.3 0 346.7 0 320 0C293.3 0 266.7 0 240 0C213.3 0 186.7 0 160 0C133.3 0 106.7 0 80 0C53.3 0 26.7 0 13.3 0L0 0Z" fill="#f1190a"></path><path d="M0 94L13.3 92.2C26.7 90.3 53.3 86.7 80 84C106.7 81.3 133.3 79.7 160 87.5C186.7 95.3 213.3 112.7 240 119.3C266.7 126 293.3 122 320 120.8C346.7 119.7 373.3 121.3 400 115.3C426.7 109.3 453.3 95.7 480 90.2C506.7 84.7 533.3 87.3 560 93.8C586.7 100.3 613.3 110.7 640 113C666.7 115.3 693.3 109.7 720 109.2C746.7 108.7 773.3 113.3 800 113.7C826.7 114 853.3 110 880 109.3C906.7 108.7 933.3 111.3 946.7 112.7L960 114L960 0L946.7 0C933.3 0 906.7 0 880 0C853.3 0 826.7 0 800 0C773.3 0 746.7 0 720 0C693.3 0 666.7 0 640 0C613.3 0 586.7 0 560 0C533.3 0 506.7 0 480 0C453.3 0 426.7 0 400 0C373.3 0 346.7 0 320 0C293.3 0 266.7 0 240 0C213.3 0 186.7 0 160 0C133.3 0 106.7 0 80 0C53.3 0 26.7 0 13.3 0L0 0Z" fill="#ac001f"></path><path d="M0 61L13.3 65.2C26.7 69.3 53.3 77.7 80 81C106.7 84.3 133.3 82.7 160 77C186.7 71.3 213.3 61.7 240 61.2C266.7 60.7 293.3 69.3 320 69C346.7 68.7 373.3 59.3 400 58.3C426.7 57.3 453.3 64.7 480 71.5C506.7 78.3 533.3 84.7 560 81C586.7 77.3 613.3 63.7 640 60.8C666.7 58 693.3 66 720 72.5C746.7 79 773.3 84 800 81.8C826.7 79.7 853.3 70.3 880 69.3C906.7 68.3 933.3 75.7 946.7 79.3L960 83L960 0L946.7 0C933.3 0 906.7 0 880 0C853.3 0 826.7 0 800 0C773.3 0 746.7 0 720 0C693.3 0 666.7 0 640 0C613.3 0 586.7 0 560 0C533.3 0 506.7 0 480 0C453.3 0 426.7 0 400 0C373.3 0 346.7 0 320 0C293.3 0 266.7 0 240 0C213.3 0 186.7 0 160 0C133.3 0 106.7 0 80 0C53.3 0 26.7 0 13.3 0L0 0Z" fill="#66041c"></path><path d="M0 49L13.3 50.5C26.7 52 53.3 55 80 54C106.7 53 133.3 48 160 46.3C186.7 44.7 213.3 46.3 240 42.7C266.7 39 293.3 30 320 29.7C346.7 29.3 373.3 37.7 400 37.8C426.7 38 453.3 30 480 29C506.7 28 533.3 34 560 38.2C586.7 42.3 613.3 44.7 640 44.7C666.7 44.7 693.3 42.3 720 41.7C746.7 41 773.3 42 800 44C826.7 46 853.3 49 880 47.7C906.7 46.3 933.3 40.7 946.7 37.8L960 35L960 0L946.7 0C933.3 0 906.7 0 880 0C853.3 0 826.7 0 800 0C773.3 0 746.7 0 720 0C693.3 0 666.7 0 640 0C613.3 0 586.7 0 560 0C533.3 0 506.7 0 480 0C453.3 0 426.7 0 400 0C373.3 0 346.7 0 320 0C293.3 0 266.7 0 240 0C213.3 0 186.7 0 160 0C133.3 0 106.7 0 80 0C53.3 0 26.7 0 13.3 0L0 0Z" fill="#270208"></path></svg>